<svg xmlns="http://www.w3.org/2000/svg" width="481" height="413" viewBox="0 0 481 413">
<g>
<path d="M 322.21 153.79 L 285.50 191.08 L 259.25 191.04 C240.62,191.01 233.00,190.68 233.00,189.88 C233.00,189.27 237.84,183.76 243.75,177.63 C249.67,171.51 263.73,156.83 275.00,145.00 C286.28,133.18 301.01,117.80 307.75,110.81 L 320.00 98.12 L 320.00 77.00 L 167.00 77.00 L 167.00 117.39 L 131.01 153.50 L 131.00 39.00 L 359.00 39.00 L 358.96 77.75 L 358.92 116.50 ZM 359.00 146.65 L 359.00 267.00 L 131.00 267.00 L 131.05 225.75 L 131.11 184.50 L 196.50 116.10 L 220.38 116.05 L 244.25 116.00 L 240.38 120.27 C232.11,129.38 185.07,180.87 177.25,189.38 L 169.00 198.36 L 169.00 229.01 L 244.25 228.76 L 319.50 228.50 L 320.50 182.18 L 337.50 166.45 C346.85,157.79 355.51,149.80 356.75,148.68 ZM 334.79 361.21 L 334.50 370.50 L 326.45 370.79 C322.03,370.95 318.09,370.76 317.70,370.37 C317.32,369.98 317.00,354.64 317.00,336.28 L 317.00 302.89 L 338.25 303.19 C361.69,303.53 363.85,304.02 370.03,310.34 C378.64,319.15 377.33,337.64 367.52,345.72 L 363.99 348.63 L 370.49 358.76 C374.07,364.34 377.00,369.37 377.00,369.95 C377.00,370.61 373.51,371.00 367.57,371.00 L 358.14 371.00 L 348.44 352.50 L 341.76 352.21 L 335.08 351.91 ZM 197.00 351.00 L 197.00 371.00 L 181.00 371.00 L 181.00 303.00 L 196.85 303.00 L 211.68 322.65 L 226.50 342.31 L 226.77 322.65 L 227.04 303.00 L 244.03 303.00 L 243.76 336.75 L 243.50 370.50 L 236.62 370.80 C230.83,371.05 229.40,370.78 227.62,369.08 C226.45,367.97 219.43,358.98 212.00,349.08 C204.57,339.19 198.16,331.08 197.75,331.05 C197.34,331.02 197.00,340.00 197.00,351.00 ZM 169.80 363.77 L 169.50 370.50 L 142.93 370.77 C128.32,370.91 116.06,370.72 115.68,370.35 C115.31,369.97 115.00,354.67 115.00,336.33 L 115.00 303.00 L 169.09 303.00 L 168.80 309.75 L 168.50 316.50 L 150.70 316.77 L 132.91 317.05 L 133.20 323.27 L 133.50 329.50 L 165.00 330.05 L 165.00 344.00 L 132.90 344.00 L 133.50 356.50 L 151.80 356.77 L 170.09 357.05 ZM 105.80 363.75 L 105.50 370.50 L 75.93 370.76 C59.67,370.91 46.06,370.72 45.68,370.35 C45.31,369.97 45.00,367.35 45.00,364.52 L 45.00 359.38 L 62.50 338.77 C72.12,327.43 80.00,317.90 80.00,317.58 C80.00,317.26 72.57,317.00 63.50,317.00 L 47.00 317.00 L 47.00 303.00 L 105.00 303.00 L 104.91 314.50 L 92.88 328.50 C86.26,336.20 78.38,345.38 75.37,348.90 C71.27,353.68 70.21,355.52 71.19,356.14 C71.91,356.60 80.06,356.98 89.30,356.98 L 106.09 357.00 ZM 423.00 348.85 L 423.00 371.00 L 414.67 371.00 C410.08,371.00 406.03,370.70 405.67,370.33 C405.30,369.97 405.00,364.94 405.00,359.16 L 405.00 348.66 L 395.12 330.08 C389.69,319.86 384.28,309.59 383.10,307.25 L 380.96 303.00 L 389.73 303.00 L 398.50 303.01 L 405.82 316.49 C409.85,323.90 413.48,330.18 413.90,330.44 C414.32,330.70 418.00,324.63 422.08,316.96 L 429.50 303.01 L 438.25 303.01 C443.06,303.00 447.00,303.18 447.00,303.41 C447.00,303.63 441.60,313.95 435.00,326.34 ZM 289.00 317.00 L 289.00 371.00 L 272.00 371.00 L 271.99 346.25 C271.98,332.64 271.70,320.49 271.37,319.25 C270.80,317.11 270.29,317.00 260.88,317.00 L 251.00 317.00 L 251.00 303.00 L 310.00 303.00 L 310.00 317.00 ZM 335.00 317.00 L 335.00 338.24 L 344.14 337.81 C353.00,337.38 353.37,337.27 356.25,334.04 C358.88,331.10 359.17,330.18 358.71,326.14 C357.88,318.78 355.01,317.00 343.94,317.00 Z" fill="rgb(3,73,169)"/>
<path d="M 0.00 206.50 L 0.00 0.00 L 240.50 0.00 L 481.00 0.00 L 481.00 206.50 L 481.00 413.00 L 240.50 413.00 L 0.00 413.00 L 0.00 206.50 ZM 105.80 363.75 L 106.09 357.00 L 89.30 356.98 C80.06,356.98 71.91,356.60 71.19,356.14 C70.21,355.52 71.27,353.68 75.37,348.90 C78.38,345.38 86.26,336.20 92.88,328.50 L 104.91 314.50 L 104.95 308.75 L 105.00 303.00 L 76.00 303.00 L 47.00 303.00 L 47.00 310.00 L 47.00 317.00 L 63.50 317.00 C72.57,317.00 80.00,317.26 80.00,317.58 C80.00,317.90 72.12,327.43 62.50,338.77 L 45.00 359.38 L 45.00 364.52 C45.00,367.35 45.31,369.97 45.68,370.35 C46.06,370.72 59.67,370.91 75.93,370.76 L 105.50 370.50 L 105.80 363.75 ZM 169.80 363.77 L 170.09 357.05 L 151.80 356.77 L 133.50 356.50 L 133.20 350.25 L 132.90 344.00 L 148.95 344.00 L 165.00 344.00 L 165.00 337.03 L 165.00 330.05 L 149.25 329.78 L 133.50 329.50 L 133.20 323.27 L 132.91 317.05 L 150.70 316.77 L 168.50 316.50 L 168.80 309.75 L 169.09 303.00 L 142.05 303.00 L 115.00 303.00 L 115.00 336.33 C115.00,354.67 115.31,369.97 115.68,370.35 C116.06,370.72 128.32,370.91 142.93,370.77 L 169.50 370.50 L 169.80 363.77 ZM 197.00 351.00 C197.00,340.00 197.34,331.02 197.75,331.05 C198.16,331.08 204.57,339.19 212.00,349.08 C219.43,358.98 226.45,367.97 227.62,369.08 C229.40,370.78 230.83,371.05 236.62,370.80 L 243.50 370.50 L 243.76 336.75 L 244.03 303.00 L 235.53 303.00 L 227.04 303.00 L 226.77 322.65 L 226.50 342.31 L 211.68 322.65 L 196.85 303.00 L 188.93 303.00 L 181.00 303.00 L 181.00 337.00 L 181.00 371.00 L 189.00 371.00 L 197.00 371.00 L 197.00 351.00 ZM 289.00 344.00 L 289.00 317.00 L 299.50 317.00 L 310.00 317.00 L 310.00 310.00 L 310.00 303.00 L 280.50 303.00 L 251.00 303.00 L 251.00 310.00 L 251.00 317.00 L 260.88 317.00 C270.29,317.00 270.80,317.11 271.37,319.25 C271.70,320.49 271.98,332.64 271.99,346.25 L 272.00 371.00 L 280.50 371.00 L 289.00 371.00 L 289.00 344.00 ZM 334.79 361.21 L 335.08 351.91 L 341.76 352.21 L 348.44 352.50 L 353.29 361.75 L 358.14 371.00 L 367.57 371.00 C373.51,371.00 377.00,370.61 377.00,369.95 C377.00,369.37 374.07,364.34 370.49,358.76 L 363.99 348.63 L 367.52 345.72 C377.33,337.64 378.64,319.15 370.03,310.34 C363.85,304.02 361.69,303.53 338.25,303.19 L 317.00 302.89 L 317.00 336.28 C317.00,354.64 317.32,369.98 317.70,370.37 C318.09,370.76 322.03,370.95 326.45,370.79 L 334.50 370.50 L 334.79 361.21 ZM 423.00 359.93 L 423.00 348.85 L 435.00 326.34 C441.60,313.95 447.00,303.63 447.00,303.41 C447.00,303.18 443.06,303.00 438.25,303.01 L 429.50 303.01 L 422.08 316.96 C418.00,324.63 414.32,330.70 413.90,330.44 C413.48,330.18 409.85,323.90 405.82,316.49 L 398.50 303.01 L 389.73 303.00 L 380.96 303.00 L 383.10 307.25 C384.28,309.59 389.69,319.86 395.12,330.08 L 405.00 348.66 L 405.00 359.16 C405.00,364.94 405.30,369.97 405.67,370.33 C406.03,370.70 410.08,371.00 414.67,371.00 L 423.00 371.00 L 423.00 359.93 ZM 359.00 206.83 L 359.00 146.65 L 356.75 148.68 C355.51,149.80 346.85,157.79 337.50,166.45 L 320.50 182.18 L 320.00 205.34 L 319.50 228.50 L 244.25 228.76 L 169.00 229.01 L 169.00 213.69 L 169.00 198.36 L 177.25 189.38 C185.07,180.87 232.11,129.38 240.38,120.27 L 244.25 116.00 L 220.38 116.05 L 196.50 116.10 L 163.80 150.30 L 131.11 184.50 L 131.05 225.75 L 131.00 267.00 L 245.00 267.00 L 359.00 267.00 L 359.00 206.83 ZM 322.21 153.79 L 358.92 116.50 L 358.96 77.75 L 359.00 39.00 L 245.00 39.00 L 131.00 39.00 L 131.01 96.25 L 131.01 153.50 L 149.01 135.44 L 167.00 117.39 L 167.00 97.19 L 167.00 77.00 L 243.50 77.00 L 320.00 77.00 L 320.00 87.56 L 320.00 98.12 L 307.75 110.81 C301.01,117.80 286.28,133.18 275.00,145.00 C263.73,156.83 249.67,171.51 243.75,177.63 C237.84,183.76 233.00,189.27 233.00,189.88 C233.00,190.68 240.62,191.01 259.25,191.04 L 285.50 191.08 L 322.21 153.79 ZM 335.00 327.62 L 335.00 317.00 L 343.94 317.00 C355.01,317.00 357.88,318.78 358.71,326.14 C359.17,330.18 358.88,331.10 356.25,334.04 C353.37,337.27 353.00,337.38 344.14,337.81 L 335.00 338.24 L 335.00 327.62 Z" fill="rgb(254,254,254)"/>
</g>
</svg>